<?xml version="1.0" encoding="UTF-8"?>
<svg xmlns="http://www.w3.org/2000/svg" version="1.1" viewBox="0 0 1920 613">
  <defs>
    <style>
      .cls-1 {
        isolation: isolate;
      }

      .cls-2 {
        mix-blend-mode: multiply;
      }

      .cls-3 {
        fill: #666;
      }

      .cls-4 {
        fill: #199bdb;
      }

      .cls-5 {
        fill: #79818e;
      }
    </style>
  </defs>
  <!-- Generator: Adobe Illustrator 28.7.4, SVG Export Plug-In . SVG Version: 1.2.0 Build 166)  -->
  <g class="cls-1">
    <g id="Livello_1">
      <g>
        <path class="cls-4" d="M291,377.7c-15-3.9-26.9-8.7-35.8-14.6l18.3-39.3c8.4,5.4,18.6,9.8,30.6,13.2,11.9,3.4,23.7,5.1,35.1,5.1,23.2,0,34.8-5.7,34.8-17.2s-3.2-9.3-9.5-11.6c-6.3-2.3-16-4.3-29.2-6-15.5-2.3-28.2-5-38.3-8.1-10.1-3-18.8-8.4-26.2-16.2-7.4-7.7-11.1-18.7-11.1-33s3.5-22.5,10.4-31.8c6.9-9.2,17-16.5,30.2-21.6,13.2-5.1,28.9-7.7,46.9-7.7s26.6,1.5,39.9,4.4c13.2,2.9,24.2,7,32.8,12.1l-18.3,39c-16.6-9.4-34.8-14.1-54.5-14.1s-20.5,1.6-26.4,4.9c-5.9,3.3-8.8,7.5-8.8,12.6s3.2,10,9.5,12.3c6.3,2.3,16.4,4.6,30.2,6.7,15.5,2.6,28.1,5.3,37.9,8.3,9.8,2.9,18.4,8.3,25.6,16,7.3,7.7,10.9,18.5,10.9,32.3s-3.5,22.1-10.5,31.3c-7,9.1-17.3,16.2-30.7,21.3-13.5,5-29.5,7.6-48,7.6s-31-1.9-46-5.8Z"/>
        <path class="cls-4" d="M482.3,371c-15.8-8.3-28.2-19.8-37.1-34.6-8.9-14.8-13.4-31.5-13.4-50.2s4.4-35.5,13.4-50.2c8.9-14.8,21.3-26.3,37.1-34.6,15.8-8.3,33.7-12.5,53.6-12.5s37.7,4.2,53.4,12.5c15.7,8.3,28,19.9,36.9,34.6,8.9,14.8,13.4,31.5,13.4,50.2s-4.5,35.5-13.4,50.2c-8.9,14.8-21.2,26.3-36.9,34.6-15.7,8.3-33.5,12.5-53.4,12.5s-37.8-4.2-53.6-12.5ZM570.5,324.3c9-9.5,13.5-22.2,13.5-38.1s-4.5-28.6-13.5-38.1c-9-9.5-20.6-14.2-34.6-14.2s-25.6,4.7-34.8,14.2c-9.1,9.5-13.7,22.2-13.7,38.1s4.6,28.6,13.7,38.1c9.1,9.5,20.7,14.2,34.8,14.2s25.6-4.7,34.6-14.2Z"/>
        <path class="cls-4" d="M662,122.8h54.8v260.7h-54.8V122.8Z"/>
        <path class="cls-4" d="M756.5,159.3c-6.3-5.9-9.5-13.1-9.5-21.8s3.2-15.9,9.5-21.8c6.3-5.9,14.5-8.8,24.6-8.8s18.3,2.8,24.6,8.4c6.3,5.6,9.5,12.6,9.5,21.1s-3.2,16.7-9.5,22.7c-6.3,6-14.5,9-24.6,9s-18.3-2.9-24.6-8.8ZM753.7,194.5h54.8v189h-54.8v-189Z"/>
        <path class="cls-4" d="M1037.9,122.7v260.7h-52.3v-21.8c-13.6,16.4-33.3,24.6-59,24.6s-33.9-4-48.3-11.9c-14.4-8-25.7-19.3-33.9-34.1-8.2-14.8-12.3-31.9-12.3-51.3s4.1-36.5,12.3-51.3c8.2-14.8,19.5-26.1,33.9-34.1,14.4-8,30.5-11.9,48.3-11.9s43,7.6,56.6,22.8v-91.7h54.8ZM970.4,327c9.1-9.5,13.7-22.2,13.7-38.1s-4.6-28.6-13.7-38.1c-9.1-9.5-20.6-14.2-34.4-14.2s-25.6,4.7-34.8,14.2c-9.1,9.5-13.7,22.2-13.7,38.1s4.6,28.6,13.7,38.1c9.1,9.5,20.7,14.2,34.8,14.2s25.3-4.7,34.4-14.2Z"/>
        <g class="cls-2">
          <g>
            <path class="cls-5" d="M1038.1,197v260.7h-52.3v-21.8c-13.6,16.4-33.3,24.6-59,24.6s-33.9-4-48.3-11.9c-14.4-8-25.7-19.3-33.9-34.1-8.2-14.8-12.3-31.9-12.3-51.3s4.1-36.5,12.3-51.3c8.2-14.8,19.5-26.1,33.9-34.1,14.4-8,30.5-11.9,48.3-11.9s43,7.6,56.6,22.8v-91.7h54.8ZM970.7,401.3c9.1-9.5,13.7-22.2,13.7-38.1s-4.6-28.6-13.7-38.1c-9.1-9.5-20.6-14.2-34.4-14.2s-25.6,4.7-34.8,14.2c-9.1,9.5-13.7,22.2-13.7,38.1s4.6,28.6,13.7,38.1c9.1,9.5,20.7,14.2,34.8,14.2s25.3-4.7,34.4-14.2Z"/>
            <path class="cls-5" d="M1218.3,286.8c15.7,13.9,23.5,35,23.5,63.1v107.9h-51.3v-23.5c-10.3,17.6-29.5,26.4-57.6,26.4s-27.1-2.5-37.8-7.4c-10.7-4.9-18.8-11.7-24.4-20.4-5.6-8.7-8.4-18.5-8.4-29.5,0-17.6,6.6-31.4,19.8-41.5,13.2-10.1,33.7-15.1,61.3-15.1h43.6c0-11.9-3.6-21.1-10.9-27.6-7.3-6.4-18.2-9.7-32.7-9.7s-20,1.6-29.7,4.7c-9.7,3.2-18,7.4-24.8,12.8l-19.7-38.3c10.3-7.3,22.7-12.9,37.1-16.9,14.4-4,29.2-6,44.4-6,29.3,0,51.8,7,67.5,20.9ZM1171.6,417.1c7.3-4.3,12.4-10.7,15.5-19.1v-19.3h-37.6c-22.5,0-33.7,7.4-33.7,22.1s2.8,12.6,8.3,16.7c5.5,4.1,13.1,6.1,22.7,6.1s17.7-2.2,24.9-6.5Z"/>
            <path class="cls-5" d="M1399.3,448.6c-5.4,4-12,7-19.8,9-7.9,2-16.1,3-24.8,3-22.5,0-39.9-5.7-52.2-17.2-12.3-11.5-18.4-28.3-18.4-50.6v-77.6h-29.2v-42.2h29.2v-46h54.8v46h47.1v42.2h-47.1v76.9c0,8,2,14.1,6.1,18.4,4.1,4.3,9.9,6.5,17.4,6.5s16-2.3,22.1-7l14.8,38.6Z"/>
            <path class="cls-5" d="M1559.8,286.8c15.7,13.9,23.5,35,23.5,63.1v107.9h-51.3v-23.5c-10.3,17.6-29.5,26.4-57.6,26.4s-27.1-2.5-37.8-7.4c-10.7-4.9-18.8-11.7-24.4-20.4-5.6-8.7-8.4-18.5-8.4-29.5,0-17.6,6.6-31.4,19.8-41.5,13.2-10.1,33.7-15.1,61.3-15.1h43.6c0-11.9-3.6-21.1-10.9-27.6-7.3-6.4-18.2-9.7-32.7-9.7s-20,1.6-29.7,4.7c-9.7,3.2-18,7.4-24.8,12.8l-19.7-38.3c10.3-7.3,22.7-12.9,37.1-16.9,14.4-4,29.2-6,44.4-6,29.3,0,51.8,7,67.5,20.9ZM1513.1,417.1c7.3-4.3,12.4-10.7,15.5-19.1v-19.3h-37.6c-22.5,0-33.7,7.4-33.7,22.1s2.8,12.6,8.3,16.7c5.5,4.1,13.1,6.1,22.7,6.1s17.7-2.2,24.9-6.5Z"/>
          </g>
        </g>
        <g>
          <path class="cls-3" d="M852.4,491.8c1.9,1.5,2.8,3.7,2.8,6.4s-.9,4.8-2.8,6.4c-1.9,1.5-4.4,2.3-7.6,2.3h-6.2v7.6h-3.6v-25h9.8c3.2,0,5.8.8,7.6,2.3ZM849.9,502.3c1.2-1,1.8-2.4,1.8-4.2s-.6-3.2-1.8-4.2-2.9-1.4-5.2-1.4h-6.1v11.2h6.1c2.3,0,4-.5,5.2-1.4Z"/>
          <path class="cls-3" d="M878.6,511.4v3.1h-18.2v-25h17.7v3.1h-14.1v7.7h12.5v3h-12.5v8.1h14.6Z"/>
          <path class="cls-3" d="M901.1,514.5l-5.4-7.7c-.7,0-1.2,0-1.6,0h-6.2v7.6h-3.6v-25h9.8c3.2,0,5.8.8,7.6,2.3,1.9,1.5,2.8,3.7,2.8,6.4s-.5,3.6-1.4,4.9c-1,1.4-2.3,2.3-4.1,3l5.9,8.4h-3.9ZM899.2,502.4c1.2-1,1.8-2.4,1.8-4.2s-.6-3.2-1.8-4.2-2.9-1.4-5.2-1.4h-6.1v11.3h6.1c2.3,0,4-.5,5.2-1.5Z"/>
          <path class="cls-3" d="M933.6,514.5v-18.2s-9.1,15.2-9.1,15.2h-1.6l-9-15.1v18.1h-3.4v-25h2.9l10.4,17.6,10.3-17.6h2.9v25s-3.4,0-3.4,0Z"/>
          <path class="cls-3" d="M960.4,508.2h-13.3l-2.8,6.3h-3.7l11.3-25h3.5l11.4,25h-3.8l-2.8-6.3ZM959.2,505.4l-5.4-12.3-5.4,12.3h10.8Z"/>
          <path class="cls-3" d="M992.2,489.5v25h-2.9l-15-18.7v18.7h-3.6v-25h2.9l15,18.7v-18.7h3.6Z"/>
          <path class="cls-3" d="M1017.8,511.4v3.1h-18.2v-25h17.7v3.1h-14.1v7.7h12.5v3h-12.5v8.1h14.6Z"/>
          <path class="cls-3" d="M1045.1,489.5v25h-2.9l-15-18.7v18.7h-3.6v-25h2.9l15,18.7v-18.7h3.6Z"/>
          <path class="cls-3" d="M1057.6,492.6h-8.6v-3.1h20.7v3.1h-8.6v21.9h-3.5v-21.9Z"/>
          <path class="cls-3" d="M1083.2,489.5h10.5c2.6,0,5,.5,7,1.6,2,1,3.6,2.5,4.8,4.4,1.1,1.9,1.7,4.1,1.7,6.5s-.6,4.6-1.7,6.5c-1.1,1.9-2.7,3.4-4.8,4.4-2,1-4.4,1.6-7,1.6h-10.5v-25ZM1093.5,511.4c2,0,3.8-.4,5.3-1.2,1.5-.8,2.7-1.9,3.6-3.3.8-1.4,1.2-3.1,1.2-4.9s-.4-3.5-1.2-4.9c-.8-1.4-2-2.5-3.6-3.3-1.5-.8-3.3-1.2-5.3-1.2h-6.8v18.8h6.8Z"/>
          <path class="cls-3" d="M1112.7,489.5h3.6v25h-3.6v-25Z"/>
          <path class="cls-3" d="M1141.1,501.8h3.4v9.8c-1.2,1-2.7,1.8-4.3,2.4-1.6.5-3.4.8-5.1.8s-4.8-.6-6.8-1.7c-2-1.1-3.6-2.6-4.8-4.6-1.2-1.9-1.7-4.1-1.7-6.6s.6-4.6,1.7-6.6c1.2-2,2.8-3.5,4.8-4.6,2-1.1,4.3-1.6,6.9-1.6s3.8.3,5.4,1c1.6.7,3,1.6,4.2,2.9l-2.2,2.2c-2-1.9-4.4-2.9-7.3-2.9s-3.6.4-5.1,1.2c-1.5.8-2.7,2-3.6,3.4-.9,1.5-1.3,3.1-1.3,4.9s.4,3.4,1.3,4.9c.9,1.5,2,2.6,3.6,3.4,1.5.8,3.2,1.3,5.1,1.3s4.2-.5,5.9-1.6v-8.1Z"/>
          <path class="cls-3" d="M1151.4,489.5h3.6v25h-3.6v-25Z"/>
          <path class="cls-3" d="M1167.4,492.6h-8.6v-3.1h20.7v3.1h-8.6v21.9h-3.5v-21.9Z"/>
          <path class="cls-3" d="M1198.1,508.2h-13.3l-2.8,6.3h-3.7l11.3-25h3.5l11.4,25h-3.8l-2.8-6.3ZM1196.9,505.4l-5.4-12.3-5.4,12.3h10.8Z"/>
          <path class="cls-3" d="M1208.3,489.5h3.6v21.9h13.5v3.1h-17.1v-25Z"/>
          <path class="cls-3" d="M1255.1,508.2h-13.3l-2.8,6.3h-3.7l11.3-25h3.5l11.4,25h-3.8l-2.8-6.3ZM1253.9,505.4l-5.4-12.3-5.4,12.3h10.8Z"/>
          <path class="cls-3" d="M1267.2,513.9c-1.8-.6-3.1-1.3-4.1-2.3l1.3-2.8c1,.9,2.2,1.6,3.7,2.1,1.5.5,3,.8,4.6.8s3.6-.4,4.6-1.1c1-.7,1.5-1.6,1.5-2.8s-.3-1.6-.8-2.1c-.6-.5-1.3-.9-2.1-1.2s-2-.6-3.5-1c-1.9-.5-3.4-.9-4.6-1.4-1.2-.5-2.1-1.1-3-2.1-.8-.9-1.2-2.2-1.2-3.8s.4-2.5,1.1-3.6c.7-1.1,1.8-1.9,3.2-2.6,1.4-.6,3.2-1,5.3-1s2.9.2,4.4.6c1.4.4,2.7.9,3.7,1.6l-1.2,2.9c-1-.7-2.2-1.2-3.4-1.5s-2.4-.5-3.5-.5c-2,0-3.5.4-4.6,1.1-1,.7-1.5,1.7-1.5,2.9s.3,1.6.9,2.1,1.3,1,2.1,1.3c.8.3,2,.6,3.4.9,1.9.5,3.4.9,4.5,1.4,1.1.5,2.1,1.1,2.9,2.1.8.9,1.2,2.2,1.2,3.8s-.4,2.5-1.1,3.6c-.7,1.1-1.8,1.9-3.3,2.6-1.5.6-3.2.9-5.4.9s-3.7-.3-5.4-.9Z"/>
          <path class="cls-3" d="M1289.3,513.9c-1.8-.6-3.1-1.3-4.1-2.3l1.3-2.8c1,.9,2.2,1.6,3.7,2.1,1.5.5,3,.8,4.6.8s3.6-.4,4.6-1.1c1-.7,1.5-1.6,1.5-2.8s-.3-1.6-.8-2.1c-.6-.5-1.3-.9-2.1-1.2s-2-.6-3.5-1c-1.9-.5-3.4-.9-4.6-1.4-1.2-.5-2.1-1.1-3-2.1-.8-.9-1.2-2.2-1.2-3.8s.4-2.5,1.1-3.6c.7-1.1,1.8-1.9,3.2-2.6,1.4-.6,3.2-1,5.3-1s2.9.2,4.4.6c1.4.4,2.7.9,3.7,1.6l-1.2,2.9c-1-.7-2.2-1.2-3.4-1.5s-2.4-.5-3.5-.5c-2,0-3.5.4-4.6,1.1-1,.7-1.5,1.7-1.5,2.9s.3,1.6.9,2.1,1.3,1,2.1,1.3c.8.3,2,.6,3.4.9,1.9.5,3.4.9,4.5,1.4,1.1.5,2.1,1.1,2.9,2.1.8.9,1.2,2.2,1.2,3.8s-.4,2.5-1.1,3.6c-.7,1.1-1.8,1.9-3.3,2.6-1.5.6-3.2.9-5.4.9s-3.7-.3-5.4-.9Z"/>
          <path class="cls-3" d="M1327.8,511.4v3.1h-18.2v-25h17.7v3.1h-14.1v7.7h12.5v3h-12.5v8.1h14.6Z"/>
          <path class="cls-3" d="M1338.6,492.6h-8.6v-3.1h20.7v3.1h-8.6v21.9h-3.5v-21.9Z"/>
          <path class="cls-3" d="M1356.1,513.9c-1.8-.6-3.1-1.3-4.1-2.3l1.3-2.8c1,.9,2.2,1.6,3.7,2.1,1.5.5,3,.8,4.6.8s3.6-.4,4.6-1.1c1-.7,1.5-1.6,1.5-2.8s-.3-1.6-.8-2.1c-.6-.5-1.3-.9-2.1-1.2s-2-.6-3.5-1c-1.9-.5-3.4-.9-4.6-1.4-1.2-.5-2.1-1.1-3-2.1-.8-.9-1.2-2.2-1.2-3.8s.4-2.5,1.1-3.6c.7-1.1,1.8-1.9,3.2-2.6,1.4-.6,3.2-1,5.3-1s2.9.2,4.4.6c1.4.4,2.7.9,3.7,1.6l-1.2,2.9c-1-.7-2.2-1.2-3.4-1.5s-2.4-.5-3.5-.5c-2,0-3.5.4-4.6,1.1-1,.7-1.5,1.7-1.5,2.9s.3,1.6.9,2.1,1.3,1,2.1,1.3c.8.3,2,.6,3.4.9,1.9.5,3.4.9,4.5,1.4,1.1.5,2.1,1.1,2.9,2.1.8.9,1.2,2.2,1.2,3.8s-.4,2.5-1.1,3.6c-.7,1.1-1.8,1.9-3.3,2.6-1.5.6-3.2.9-5.4.9s-3.7-.3-5.4-.9Z"/>
          <path class="cls-3" d="M1403.5,491.8c1.9,1.5,2.8,3.7,2.8,6.4s-.9,4.8-2.8,6.4c-1.9,1.5-4.4,2.3-7.6,2.3h-6.2v7.6h-3.6v-25h9.8c3.2,0,5.8.8,7.6,2.3ZM1400.9,502.3c1.2-1,1.8-2.4,1.8-4.2s-.6-3.2-1.8-4.2-2.9-1.4-5.2-1.4h-6.1v11.2h6.1c2.3,0,4-.5,5.2-1.4Z"/>
          <path class="cls-3" d="M1411.5,489.5h3.6v21.9h13.5v3.1h-17.1v-25Z"/>
          <path class="cls-3" d="M1448.8,508.2h-13.3l-2.8,6.3h-3.7l11.3-25h3.5l11.4,25h-3.8l-2.8-6.3ZM1447.5,505.4l-5.4-12.3-5.4,12.3h10.8Z"/>
          <path class="cls-3" d="M1462.7,492.6h-8.6v-3.1h20.7v3.1h-8.6v21.9h-3.5v-21.9Z"/>
          <path class="cls-3" d="M1482.3,492.6v8.7h12.5v3.1h-12.5v10.1h-3.6v-25h17.7v3.1h-14.1Z"/>
          <path class="cls-3" d="M1505.6,513.1c-2-1.1-3.6-2.6-4.8-4.6-1.2-2-1.7-4.1-1.7-6.5s.6-4.6,1.7-6.5c1.2-2,2.7-3.5,4.8-4.6,2-1.1,4.3-1.7,6.8-1.7s4.8.6,6.8,1.7c2,1.1,3.6,2.6,4.8,4.6,1.1,1.9,1.7,4.1,1.7,6.6s-.6,4.6-1.7,6.6c-1.1,1.9-2.7,3.5-4.8,4.6-2,1.1-4.3,1.7-6.8,1.7s-4.8-.6-6.8-1.7ZM1517.4,510.3c1.5-.8,2.6-2,3.5-3.4s1.3-3.1,1.3-4.9-.4-3.4-1.3-4.9-2-2.6-3.5-3.4c-1.5-.8-3.1-1.3-4.9-1.3s-3.5.4-5,1.3c-1.5.8-2.7,2-3.5,3.4s-1.3,3.1-1.3,4.9.4,3.4,1.3,4.9,2,2.6,3.5,3.4,3.1,1.3,5,1.3,3.5-.4,4.9-1.3Z"/>
          <path class="cls-3" d="M1547.9,514.5l-5.4-7.7c-.7,0-1.2,0-1.6,0h-6.2v7.6h-3.6v-25h9.8c3.2,0,5.8.8,7.6,2.3,1.9,1.5,2.8,3.7,2.8,6.4s-.5,3.6-1.4,4.9c-1,1.4-2.3,2.3-4.1,3l5.9,8.4h-3.9ZM1546,502.4c1.2-1,1.8-2.4,1.8-4.2s-.6-3.2-1.8-4.2-2.9-1.4-5.2-1.4h-6.1v11.3h6.1c2.3,0,4-.5,5.2-1.5Z"/>
          <path class="cls-3" d="M1580.3,514.5v-18.2s-9.1,15.2-9.1,15.2h-1.6l-9-15.1v18.1h-3.4v-25h2.9l10.4,17.6,10.3-17.6h2.9v25s-3.4,0-3.4,0Z"/>
        </g>
      </g>
    </g>
  </g>
</svg>